<svg xmlns="http://www.w3.org/2000/svg" width="65.617" height="73.505" viewBox="0 0 65.617 73.505"><g transform="translate(0)"><g transform="translate(0 0)"><g transform="translate(0 22.564)"><path d="M-1121.033,31.025l-3.69,0-.393-.024c-.28-.017-.561-.034-.841-.046a4.494,4.494,0,0,1-4.207-3.536,18.5,18.5,0,0,1-.178-2.751l0-.258c-.014-.912-.014-1.835-.012-2.727,0-.6,0-1.2,0-1.807-.141-.124-.29-.248-.444-.377s-.33-.275-.491-.417a23.165,23.165,0,0,1-6.279-8.7c-.336-.038-.655-.067-.967-.071a4.752,4.752,0,0,1-4.561-4.407c-.03-1.051-.008-2.106.014-3.126.014-.666.029-1.355.028-2.026a4.571,4.571,0,0,1,3.7-4.034c.268-.02.536-.044.8-.069.317-.029.641-.058.97-.081a22.058,22.058,0,0,1,2.817-5.055,26.646,26.646,0,0,1,4.349-4.453.26.26,0,0,0,.052-.052h0a.476.476,0,0,0,.014-.147q0-.745,0-1.491c0-.932.009-1.9-.006-2.837a1.9,1.9,0,0,1,1.211-1.882,6.678,6.678,0,0,1,4.347-.366,7.219,7.219,0,0,1,3.458,1.936c.772-.218,1.551-.429,2.307-.635q.653-.177,1.3-.356a1.513,1.513,0,0,1,1.692.6c.474.647.966,1.3,1.443,1.933q.371.493.741.987a2.865,2.865,0,0,1,.226.365c.016.029.032.059.05.09l.647,1.113-1.175.526-.264.116c-.15.065-.287.125-.422.191a.858.858,0,0,0-.476.674.888.888,0,0,0,.312.8,1.371,1.371,0,0,0,.562.076l.117,0c.658.024,1.318.042,1.977.06,1.291.036,2.625.073,3.945.153a22.71,22.71,0,0,1,6.474,1.336c1.02.375,2.024.8,2.994,1.219.514.22,1.029.44,1.546.652l.119.049a2.614,2.614,0,0,0,.569.194.88.88,0,0,0,.765-.607.748.748,0,0,0-.206-.883,8.536,8.536,0,0,0-.914-.556c-.122-.068-.244-.135-.365-.2-.2-.113-.4-.216-.576-.309l-.232-.121-1.65-.875,2.427-1.74q1.192-.853,2.379-1.714a1.761,1.761,0,0,1,2.154-.031c.117.082.236.16.356.238s.226.148.338.224a23,23,0,0,1,9.3,11.877,5.213,5.213,0,0,0,1.516-4.259l-.194-3.947,2.293,3.218.15.207a6.486,6.486,0,0,1,.819,1.357,16.923,16.923,0,0,1,.544,1.63c.063.213.126.425.192.636l.053.17v1.5l-.088.211a7.008,7.008,0,0,1-4.422,5.663c-.028.611-.059,1.243-.135,1.88a18.739,18.739,0,0,1-2.792,7.734,25.48,25.48,0,0,1-4.362,5.2c0,.986,0,1.972,0,2.958-.005,1.414-.01,2.876,0,4.309a4.712,4.712,0,0,1-2.352,4.22,3.256,3.256,0,0,1-1.595.529c-1.462.041-3.393.084-5.369.056a4.58,4.58,0,0,1-4.348-4.215c-.008-.361-.026-.728-.048-1.084l-.294.056c-.931.179-1.893.365-2.868.482a35.64,35.64,0,0,1-10.417-.3c-.017.229-.034.456-.053.682a4.583,4.583,0,0,1-2.71,3.952,5.821,5.821,0,0,1-1.139.369c-.129.031-.257.063-.384.1Zm-3.59-2.316h3.269c.1-.027.207-.053.311-.078a3.977,3.977,0,0,0,.7-.212,2.292,2.292,0,0,0,1.394-2.054c.035-.418.064-.836.1-1.272l.135-1.869,1.232.179.389.055c.286.039.555.076.837.126a33.335,33.335,0,0,0,9.816.29c.893-.107,1.774-.276,2.706-.456.386-.074.771-.148,1.157-.218a1.51,1.51,0,0,1,1.3.212,1.532,1.532,0,0,1,.529,1.2c.045.627.1,1.337.112,2.054a2.311,2.311,0,0,0,2.066,1.951c1.932.028,3.831-.015,5.27-.055a1.008,1.008,0,0,0,.413-.166,2.437,2.437,0,0,0,1.282-2.245c-.014-1.449-.009-2.919,0-4.341,0-1,.007-2,0-3a2.053,2.053,0,0,1,.675-1.587,23.317,23.317,0,0,0,4.032-4.775,16.484,16.484,0,0,0,2.464-6.793c.066-.559.093-1.127.121-1.729q.011-.248.024-.5a1.446,1.446,0,0,1,1.021-1.382,4.779,4.779,0,0,0,3.425-4.166,1.278,1.278,0,0,1,.036-.158v-.361a7.831,7.831,0,0,1-3.062,3.2l-1.246.755-.55-1.673c-.072-.215-.142-.425-.206-.637a20.658,20.658,0,0,0-8.611-11.307c-.1-.067-.2-.131-.295-.2l-.133-.088q-.773.562-1.549,1.116a7.857,7.857,0,0,1,.748.483,3.039,3.039,0,0,1,1,3.567,3.172,3.172,0,0,1-3.142,2.093,4.229,4.229,0,0,1-1.247-.362l-.109-.045c-.528-.216-1.053-.441-1.578-.665-.943-.4-1.919-.821-2.883-1.175a20.4,20.4,0,0,0-5.815-1.2c-1.282-.077-2.6-.114-3.87-.149-.666-.018-1.331-.037-2-.061l-.106,0a3.012,3.012,0,0,1-1.975-.615,3.2,3.2,0,0,1-1.125-2.855,3.172,3.172,0,0,1,1.276-2.183l-.153-.2c-.384-.509-.778-1.032-1.166-1.558l-.818.222c-.882.239-1.794.487-2.683.742a1.554,1.554,0,0,1-1.669-.5,4.906,4.906,0,0,0-2.562-1.531,4.355,4.355,0,0,0-2.7.161c.011.909.007,1.81,0,2.683q0,.739,0,1.478a2.429,2.429,0,0,1-.894,1.975,24.425,24.425,0,0,0-3.982,4.064,19.8,19.8,0,0,0-2.644,4.844,1.628,1.628,0,0,1-1.533,1.116c-.411.02-.821.057-1.256.1-.281.026-.561.051-.842.072A2.431,2.431,0,0,0-1140.746.75c0,.7-.014,1.4-.029,2.079-.021.991-.043,2.017-.014,3.009A2.417,2.417,0,0,0-1138.51,8a15.531,15.531,0,0,1,1.694.146,1.565,1.565,0,0,1,1.226.966,20.51,20.51,0,0,0,5.821,8.233c.146.128.295.252.443.376.234.195.475.4.713.618a1.8,1.8,0,0,1,.563,1.256c.006.7.005,1.395,0,2.092,0,.883,0,1.8.012,2.689l0,.261a16.552,16.552,0,0,0,.148,2.411,2.174,2.174,0,0,0,2.024,1.6c.294.013.587.031.88.049ZM-1130.647-.9a1.862,1.862,0,0,1-1.121-.361,1.929,1.929,0,0,1-.748-1.617,3.723,3.723,0,0,1,.233-1.2,5.957,5.957,0,0,1,2.33-2.975,3.114,3.114,0,0,1,1.358-.483,1.856,1.856,0,0,1,1.513.41,2.237,2.237,0,0,1,.608,1.763v.026a4.364,4.364,0,0,1-.885,2.239,4.936,4.936,0,0,1-2.6,2.089A2.242,2.242,0,0,1-1130.647-.9Zm1.678-4.007a3.656,3.656,0,0,0-1.008,1.307,3.764,3.764,0,0,0,.706-.805A4.686,4.686,0,0,0-1128.97-4.908Z" transform="translate(1143.119 19.916)" fill="#8beca4"/></g><g transform="translate(25.904)"><path d="M-1049.271-64.051a13.02,13.02,0,0,1-7.421-2.271,13,13,0,0,1-5.254-7.655,13.22,13.22,0,0,1,1.718-10.4,13.326,13.326,0,0,1,8.8-5.7c.235-.041.47-.085.705-.129l.447-.082h1.9l.1.018c.192.034.385.064.578.094.453.071.922.144,1.4.267,5.4,1.393,8.813,4.912,9.88,10.177a12.95,12.95,0,0,1-1.939,9.933,13.033,13.033,0,0,1-8.4,5.518A14.267,14.267,0,0,1-1049.271-64.051Zm-.789-23.92-.236.044c-.242.045-.484.09-.726.132a11,11,0,0,0-7.274,4.7,10.785,10.785,0,0,0-1.395,8.6,10.642,10.642,0,0,0,12.533,7.945,10.705,10.705,0,0,0,6.892-4.54,10.654,10.654,0,0,0,1.585-8.173c-.892-4.4-3.647-7.223-8.19-8.395-.367-.095-.761-.156-1.177-.222-.175-.027-.349-.055-.523-.084Z" transform="translate(1062.33 90.287)" fill="#8beca4"/></g></g><g transform="translate(35.585 6.397)"><path d="M-1029.8-72.383c0,.612.007,1.189-.007,1.766a.337.337,0,0,1-.159.251,3.244,3.244,0,0,0-2.137,3.2,2.837,2.837,0,0,0,1.024,2.326c.456.4.973.72,1.439,1.1a7.422,7.422,0,0,1,1.037.982,1.256,1.256,0,0,1,.126,1.41,1.189,1.189,0,0,1-1.172.68,4.188,4.188,0,0,1-.9-.089c-.4-.093-.794-.239-1.229-.374-.112.55-.206,1.1-.34,1.632-.068.274.022.418.264.485a9.676,9.676,0,0,0,1.33.323c.306.039.361.167.357.423-.009.526,0,1.052,0,1.613l1.833-.083c0-.6.01-1.18-.005-1.755a.384.384,0,0,1,.263-.42,3.535,3.535,0,0,0,1.492-1.1,3.71,3.71,0,0,0-.733-5.022c-.613-.5-1.279-.93-1.914-1.4a1.262,1.262,0,0,1-.419-1.347c.084-.5.487-.647.91-.743a2.686,2.686,0,0,1,1.74.216c.325.147.352.129.435-.209.1-.426.18-.861.305-1.281.081-.27.005-.4-.25-.472-.522-.14-1.043-.282-1.6-.434v-1.684Z" transform="translate(1032.138 72.383)" fill="#8beca4"/></g></g></svg>