<svg xmlns="http://www.w3.org/2000/svg" width="68.889" height="68.889" viewBox="0 0 68.889 68.889"><path d="M14,48.444A34.432,34.432,0,0,1,48.444,14h0A34.442,34.442,0,0,1,82.889,48.444h0A34.452,34.452,0,0,1,48.444,82.889h0A34.442,34.442,0,0,1,14,48.444Zm8.094,0a26.4,26.4,0,0,0,26.35,26.342h0A26.4,26.4,0,0,0,74.787,48.444h0a26.4,26.4,0,0,0-26.342-26.35h0a26.4,26.4,0,0,0-26.35,26.35Z" transform="translate(-14 -14)" fill="#17d849"/><g transform="translate(15.309 15.309)"><path d="M56.272,33.309H40.963V18H33.309V33.309H18v7.654H33.309V56.272h7.654V40.963H56.272Z" transform="translate(-18 -18)" fill="#17d849"/></g></svg>