<svg xmlns="http://www.w3.org/2000/svg" width="81.898" height="67.006" viewBox="0 0 81.898 67.006"><path d="M80.754,3.349a3.749,3.749,0,0,0-3.965.514L57.376,20.045,44.856,4.41a3.857,3.857,0,0,0-5.815,0L26.522,20.045,7.105,3.863A3.723,3.723,0,0,0,1,6.722V58.839A11.168,11.168,0,0,0,12.168,70.007H71.73A11.168,11.168,0,0,0,82.9,58.839V6.722a3.723,3.723,0,0,0-2.144-3.373Zm-5.3,55.49a3.723,3.723,0,0,1-3.723,3.723H12.168a3.723,3.723,0,0,1-3.723-3.723V55.116H75.453Zm0-11.168H8.445v-33L24.676,28.194a3.722,3.722,0,0,0,5.29-.532L41.949,12.678l11.983,14.98a3.723,3.723,0,0,0,5.294.532L75.453,14.669Z" transform="translate(-1 -3)" fill="#17d849"/><path d="M27.613,11H12.723a3.723,3.723,0,0,0,0,7.445H27.613a3.723,3.723,0,0,0,0-7.445Z" transform="translate(20.781 18.78)" fill="#17d849"/></svg>