<svg xmlns="http://www.w3.org/2000/svg" width="65.445" height="46.706" viewBox="0 0 65.445 46.706"><g transform="translate(0)"><g transform="translate(0 0)"><path d="M-836.438,16.4c-.131,1.033-.6,1.585-1.558,1.624-1.1.045-2.521-.332-3.229.216-.767.592-.193,2.081-.28,3.174-.08,1-.583,1.714-1.585,1.669-.967-.043-1.466-.744-1.53-1.756-.068-1.079.514-2.507-.307-3.137-.667-.512-2.01-.144-3.053-.164a1.426,1.426,0,0,1-1.585-1.615,1.357,1.357,0,0,1,1.607-1.382,1.226,1.226,0,0,0,.185,0c1.022-.113,2.371.475,2.982-.29.49-.613.177-1.887.175-2.867,0-1.069.427-1.888,1.526-1.929,1.14-.043,1.53.807,1.592,1.855s-.455,2.36.262,3.024c.7.644,2,.182,3.04.2A1.6,1.6,0,0,1-836.438,16.4Z" transform="translate(871.825 -0.641)" fill="#8beca4"/><path d="M-851.284-10.676c-.149,1.2-.753,1.738-1.764,1.663-.967-.072-1.328.25-1.247,1.234a1.367,1.367,0,0,1-1.5,1.659c-1.11,0-1.546-.7-1.447-1.7.105-1.054-.407-1.224-1.294-1.192-1,.035-1.7-.456-1.661-1.532a1.446,1.446,0,0,1,1.733-1.478c.973.075,1.319-.258,1.218-1.23a1.394,1.394,0,0,1,1.493-1.691,1.415,1.415,0,0,1,1.463,1.73c-.125,1.032.332,1.258,1.245,1.186A1.621,1.621,0,0,1-851.284-10.676Z" transform="translate(878.489 14.951)" fill="#8beca4"/><path d="M-818.661-10.619c-.18.958-.6,1.62-1.577,1.583s-1.465.167-1.4,1.3a1.423,1.423,0,0,1-1.6,1.611,1.364,1.364,0,0,1-1.444-1.558c.021-1.052-.342-1.413-1.39-1.356a1.322,1.322,0,0,1-1.5-1.487,1.367,1.367,0,0,1,1.509-1.5c1.03.04,1.421-.256,1.375-1.33a1.447,1.447,0,0,1,1.451-1.608,1.467,1.467,0,0,1,1.6,1.646c-.062,1.107.366,1.354,1.366,1.286C-819.3-12.095-818.928-11.348-818.661-10.619Z" transform="translate(858.043 14.962)" fill="#8beca4"/><g transform="translate(0 20.134)"><path d="M-845.492,40.31c-2.537,0-5.075-.006-7.612,0a1.613,1.613,0,0,0-1.748,1.73c-.03.421.112.869-.17,1.259a3.6,3.6,0,0,1-1.244-.249c-3.6-.964-7.266-1.932-10.945-.856a44.441,44.441,0,0,1-16.828,1.518,3.742,3.742,0,0,0-3.393,1.576c-.531.721-.917.847-1.712.456-4.085-2.007-8.2-3.948-12.292-5.946a8.01,8.01,0,0,0-2.449-.791,4.7,4.7,0,0,0-4.936,2.828,3.963,3.963,0,0,0,1.51,5.045c6.654,4.587,13.309,9.162,20.2,13.414,4.8,2.962,9.706,3.42,15.079,2.483,5.039-.879,10.114-1.727,15.289-.98,1.251.181,2.153.258,1.93,1.9a1.532,1.532,0,0,0,1.653,1.8c2.6.05,5.2.045,7.8,0a1.484,1.484,0,0,0,1.625-1.62q0-10.954,0-21.909C-843.742,40.814-844.377,40.31-845.492,40.31Zm-5.739,21.979c-.736-.133-.491-.671-.5-1.045-.034-1.113.016-2.23-.034-3.342-.038-.866-.344-1.592-1.386-1.637a1.409,1.409,0,0,0-1.659,1.549c.068,1.207-.562,1.145-1.356,1.017-4.96-.8-9.865-.18-14.755.611-2.445.4-4.9.61-7.365.8a7.713,7.713,0,0,1-3.559-.841,53.092,53.092,0,0,1-7.774-4.263c-5.292-3.3-10.371-6.925-15.5-10.473-.587-.405-1.365-.75-.821-1.74a1.589,1.589,0,0,1,2.045-.789,10.048,10.048,0,0,1,1.529.633q6.081,2.9,12.156,5.814a8.424,8.424,0,0,1,3.149,2.159,4.519,4.519,0,0,0,3.54,1.331c4.762.193,9.525.339,14.286.532,1.068.043,1.954-.266,2-1.4.046-1.223-.831-1.59-1.992-1.635-4.7-.184-9.4-.435-14.094-.662-.309-.015-.62-.01-.927-.048-.619-.077-1.088-.4-1.057-1.055s.569-.906,1.165-.948a11.5,11.5,0,0,1,1.3.015c4.944.214,9.832.245,14.651-1.35,4.226-1.4,8.411-.357,12.517.964a.984.984,0,0,1,.837,1.161c-.047,1.059.376,1.895,1.528,1.9,1.316.011,1.531-.99,1.572-2.066a23.693,23.693,0,0,1,.127-4l.384-.026Zm4.531-9.313c0,2.776.012,5.552-.013,8.328,0,.42.274,1.074-.553,1.11-.857.038-.788-.581-.788-1.142q0-8.421,0-16.842c0-.572-.027-1.177.821-1.1.792.073.516.716.52,1.13C-846.687,47.3-846.7,50.138-846.7,52.976Z" transform="translate(909.186 -38.969)" fill="#8beca4"/></g></g></g></svg>