<svg xmlns="http://www.w3.org/2000/svg" width="73.181" height="63.723" viewBox="0 0 73.181 63.723"><g transform="translate(0)"><g transform="translate(0 0)"><path d="M-581.8-40.614a8.789,8.789,0,0,1,.957.269,4.012,4.012,0,0,1,2.634,3.442c.454,3.346.992,6.681,1.466,10.025.443,3.123.852,6.251,1.267,9.378a3.758,3.758,0,0,1-2.564,3.738c-1.31.326-2.648.549-3.984.754-2.394.368-4.795.691-7.193,1.03q-3.818.54-7.637,1.075c-.123.017-.244.046-.367.063-.756.1-.742.1-.778.88a20.038,20.038,0,0,1-.183,2.3,5.656,5.656,0,0,1-1.252,2.589,2.839,2.839,0,0,0-.644,1.627,8.358,8.358,0,0,1-.85,2.992,11.382,11.382,0,0,0-.842,2.414,5.261,5.261,0,0,1-3.32,3.709,10.008,10.008,0,0,1-4.8.543c-.7-.045-1.406-.166-2.1-.272a.635.635,0,0,0-.688.309,27.926,27.926,0,0,1-5.317,5.672,21.628,21.628,0,0,1-8.133,3.816c-.449.12-.9.252-1.385.39.106.245.173.415.251.58a2.019,2.019,0,0,1-.419,2.393c-1.389,1.2-2.814,2.367-4.239,3.529a2.034,2.034,0,0,1-1.75.434,1.625,1.625,0,0,1-.982-.552c-2.51-3.008-5.037-6-7.537-9.017-1.944-2.345-3.86-4.715-5.783-7.078a2.192,2.192,0,0,1,.23-3.329q1.866-1.633,3.817-3.168a2.328,2.328,0,0,1,2.99.031,4.9,4.9,0,0,1,.45.492c.172-.272.377-.555.541-.86.879-1.642,1.74-3.293,2.623-4.933,2.542-4.726,5.117-9.433,8.066-13.924.457-.7.959-1.362,1.408-2.063a6.622,6.622,0,0,1,3.842-2.777c1.5-.45,3-.863,4.513-1.268.355-.1.457-.222.4-.608-.246-1.8-.449-3.6-.668-5.4a3.789,3.789,0,0,1,2.4-4.13,6.638,6.638,0,0,1,2-.388q3.445-.518,6.893-1.014,3.264-.472,6.53-.931,3.043-.432,6.086-.863,3.358-.471,6.717-.932,2.842-.393,5.684-.785c.4-.056.806-.121,1.208-.182Zm-36.965,17.489a.765.765,0,0,0-.176-.015c-1.473.4-2.951.773-4.416,1.2a4.6,4.6,0,0,0-2.589,1.9c-.43.639-.891,1.257-1.317,1.9-2.622,3.946-4.909,8.088-7.162,12.249-1.4,2.576-2.749,5.174-4.128,7.759a.81.81,0,0,0,.1,1.014c1.353,1.639,2.682,3.3,4.027,4.946,1.636,2,3.282,4,4.915,6a.478.478,0,0,0,.566.194c1.008-.263,2.027-.484,3.031-.761a18.492,18.492,0,0,0,9.072-5.518A32.027,32.027,0,0,0-612.123.754c1.024-2.025,1.962-4.1,2.922-6.153a12.34,12.34,0,0,1,5.149-5.72c1.024-.582,2-1.256,2.963-1.935a9.224,9.224,0,0,0,3.33-3.884,4.192,4.192,0,0,0,.256-2.551,1.528,1.528,0,0,0-1.5-1.355,4.645,4.645,0,0,0-1.546.132,14.216,14.216,0,0,0-5.676,3.165c-1.483,1.325-2.9,2.729-4.335,4.1a12.056,12.056,0,0,1-4.773,2.951c-1.611.5-3.211,1.036-4.828,1.511-1.332.391-2.689.7-4.023,1.078-.617.177-1.3-.572-1.3-1.083A.937.937,0,0,1-624.72-10c.793-.284,1.606-.512,2.412-.756,1.566-.474,3.133-.947,4.7-1.409a.4.4,0,0,0,.32-.519c-.067-.48-.089-.965-.154-1.445q-.465-3.4-.948-6.788C-618.493-21.659-618.641-22.4-618.768-23.125Zm2.32-.994c.01.215,0,.376.026.533q.729,4.842,1.466,9.683c.127.833.2.888.868.358,1.077-.859,2.141-1.742,3.143-2.686a49.9,49.9,0,0,1,4.544-4.089,13.8,13.8,0,0,1,6.3-2.787,4.2,4.2,0,0,1,3.364.736,4.553,4.553,0,0,1,1.6,4.24,8.5,8.5,0,0,1-1.877,4.395c-.123.158-.225.332-.385.57,1.182-.16,2.263-.3,3.343-.454,2.57-.361,5.141-.715,7.709-1.093q3.647-.536,7.288-1.119a1.3,1.3,0,0,0,1.221-1.492c-.046-.855-.137-1.709-.253-2.557q-.456-3.339-.955-6.673c-.132-.893-.3-1.78-.459-2.728Zm-.73-5.268c.108-.005.17,0,.229-.012,1.6-.2,3.2-.4,4.8-.618q3.378-.452,6.754-.922,3.672-.506,7.344-1.017,3.026-.422,6.05-.851,3.578-.505,7.156-1.015c1.462-.211,2.921-.442,4.384-.648.257-.036.307-.152.27-.372-.119-.7-.21-1.4-.36-2.09a1.65,1.65,0,0,0-2-1.317c-.429.067-.862.114-1.292.174l-6.236.871-6.53.916c-2.213.31-4.428.616-6.641.93-2.348.333-4.7.663-7.042,1.017-2.037.307-4.071.639-6.1.976a1.238,1.238,0,0,0-1.1,1.221A9.265,9.265,0,0,0-617.178-29.387ZM-629.367,17.6l-13.1-15.922-3.883,3.139c.108.142.18.242.258.337q3.931,4.784,7.866,9.565c1.584,1.917,3.194,3.812,4.783,5.726.2.235.339.255.574.061.554-.461,1.134-.891,1.689-1.351C-630.579,18.657-629.995,18.14-629.367,17.6Zm28.893-28.084c-1.822,1-3.7,1.867-5.047,3.507a23.583,23.583,0,0,0-2.721,4.936,3.528,3.528,0,0,0,2.335-.543,26.157,26.157,0,0,0,4.149-3.387,4.81,4.81,0,0,0,1.495-3.151A2.219,2.219,0,0,0-600.474-10.484Zm-2.442,8.64-1.414.934A5.883,5.883,0,0,1-606.793.174c-.638.081-1.286.088-1.931.111-.609.022-.784.181-.815.794C-607.385,1.98-603.5.321-602.916-1.844Zm-2.607,5.091c-.085.011-.171.014-.254.033a9.521,9.521,0,0,1-3.365.218c-.43-.056-.854-.155-1.282-.223s-.54.05-.542.519a.81.81,0,0,0,.2.06c1.117.03,2.235.1,3.351.068A2.71,2.71,0,0,0-605.523,3.247Z" transform="translate(648.641 40.614)" fill="#8beca4"/></g></g></svg>